<svg width="384" height="112" viewBox="0 0 384 112" fill="none" xmlns="http://www.w3.org/2000/svg">
<path d="M28.9414 24.9453L33.8926 26.2344C33.9707 27.25 34.0098 28.1289 34.0098 28.8711C34.0098 32.7578 32.6035 35.8633 29.791 38.1875C26.9785 40.5117 23.209 41.6738 18.4824 41.6738C6.62695 41.6738 0.699219 35.0039 0.699219 21.6641C0.699219 15.3359 2.42773 10.209 5.88477 6.2832C9.3418 2.33789 13.8438 0.365234 19.3906 0.365234C28.043 0.365234 32.3691 4.52539 32.3691 12.8457L27.3887 15.1309C27.4473 13.959 27.4766 13.0508 27.4766 12.4062C27.4766 6.50781 25.1133 3.55859 20.3867 3.55859C15.3867 3.55859 12.8867 9.81836 12.8867 22.3379C12.8867 33.0996 15.6797 38.4805 21.2656 38.4805C23.5703 38.4805 25.4844 37.5625 27.0078 35.7266C28.5508 33.8906 29.3223 31.5957 29.3223 28.8418C29.3223 27.9629 29.1953 26.6641 28.9414 24.9453ZM51.2363 10.707C61.002 10.707 65.8848 15.8633 65.8848 26.1758C65.8848 36.4883 61.002 41.6445 51.2363 41.6445C41.4512 41.6445 36.5586 36.4883 36.5586 26.1758C36.5586 15.8633 41.4512 10.707 51.2363 10.707ZM51.207 13.3145C48.8438 13.3145 47.6621 17.6016 47.6621 26.1758C47.6621 34.75 48.8438 39.0371 51.207 39.0371C53.5898 39.0371 54.7812 34.75 54.7812 26.1758C54.7812 17.6016 53.5898 13.3145 51.207 13.3145ZM98.3164 41H87.623V19.3203C87.623 17.1133 87.0078 16.0098 85.7773 16.0098C84.5273 16.0098 83.4434 16.8887 82.5254 18.6465C81.6074 20.3848 81.1484 22.4453 81.1484 24.8281V41H70.4551V11.4102C74.127 11.4102 77.6914 11.166 81.1484 10.6777V16.2148C83.8047 12.543 87.0469 10.707 90.875 10.707C95.8359 10.707 98.3164 13.2266 98.3164 18.2656V41ZM132.242 41H121.549V19.3203C121.549 17.1133 120.934 16.0098 119.703 16.0098C118.453 16.0098 117.369 16.8887 116.451 18.6465C115.533 20.3848 115.074 22.4453 115.074 24.8281V41H104.381V11.4102C108.053 11.4102 111.617 11.166 115.074 10.6777V16.2148C117.73 12.543 120.973 10.707 124.801 10.707C129.762 10.707 132.242 13.2266 132.242 18.2656V41ZM159.4 30.1895L163.707 31.4492C163.258 38.2656 159.234 41.6738 151.637 41.6738C141.793 41.6738 136.871 36.7617 136.871 26.9375C136.871 22.1719 138.18 18.2656 140.797 15.2188C143.414 12.1719 146.764 10.6484 150.846 10.6484C159.381 10.6484 163.648 16.1562 163.648 27.1719H148.062C148.062 34.9062 150.025 38.7734 153.951 38.7734C157.623 38.7734 159.459 36.5859 159.459 32.2109C159.459 31.625 159.439 30.9512 159.4 30.1895ZM148.033 23.8613H154.42C154.42 16.9863 153.385 13.5488 151.314 13.5488C149.439 13.5488 148.385 16.0977 148.15 21.1953L148.033 23.8613ZM189.225 27.8164L193.736 29.1934L193.766 30.3945C193.766 37.8945 189.664 41.6445 181.461 41.6445C171.734 41.6445 166.871 36.7129 166.871 26.8496C166.871 21.9082 168.287 17.9727 171.119 15.043C173.951 12.0938 177.75 10.6191 182.516 10.6191C189.371 10.6191 192.799 13.7246 192.799 19.9355L187.789 22.3672L187.848 19.5547C187.848 15.3359 186.432 13.2266 183.6 13.2266C179.85 13.2266 177.975 17.3672 177.975 25.6484C177.975 30.7656 178.375 34.2812 179.176 36.1953C179.977 38.0898 181.461 39.0371 183.629 39.0371C187.594 39.0371 189.576 36.4688 189.576 31.332C189.576 30.6094 189.459 29.4375 189.225 27.8164ZM213.512 11.5566V14.8672H208.766V35.7559C208.766 37.0645 209.186 37.7188 210.025 37.7188C210.631 37.7188 210.992 37.2793 211.109 36.4004L214.156 36.6934C213.316 39.7793 210.641 41.3223 206.129 41.3223C200.758 41.3223 198.072 39.0371 198.072 34.4668V14.8672H194.498V11.5566H198.072V6.3418C201.764 5.32617 205.328 3.86133 208.766 1.94727V11.5566H213.512ZM222.535 31.2441C225.973 31.2441 227.691 32.9629 227.691 36.4004C227.691 39.8379 225.973 41.5566 222.535 41.5566C219.098 41.5566 217.379 39.8379 217.379 36.4004C217.379 32.9629 219.098 31.2441 222.535 31.2441ZM279.078 24.9453L284.029 26.2344C284.107 27.25 284.146 28.1289 284.146 28.8711C284.146 32.7578 282.74 35.8633 279.928 38.1875C277.115 40.5117 273.346 41.6738 268.619 41.6738C256.764 41.6738 250.836 35.0039 250.836 21.6641C250.836 15.3359 252.564 10.209 256.021 6.2832C259.479 2.33789 263.98 0.365234 269.527 0.365234C278.18 0.365234 282.506 4.52539 282.506 12.8457L277.525 15.1309C277.584 13.959 277.613 13.0508 277.613 12.4062C277.613 6.50781 275.25 3.55859 270.523 3.55859C265.523 3.55859 263.023 9.81836 263.023 22.3379C263.023 33.0996 265.816 38.4805 271.402 38.4805C273.707 38.4805 275.621 37.5625 277.145 35.7266C278.688 33.8906 279.459 31.5957 279.459 28.8418C279.459 27.9629 279.332 26.6641 279.078 24.9453ZM287.984 41V1.00977C291.148 1.00977 294.713 0.804688 298.678 0.394531V16.5371C300.982 12.6504 304.234 10.707 308.434 10.707C313.395 10.707 315.875 12.9336 315.875 17.3867V41H305.182V18.5586C305.182 16.8594 304.615 16.0098 303.482 16.0098C302.311 16.0098 301.217 17.1035 300.201 19.291C299.186 21.459 298.678 23.793 298.678 26.293V41H287.984ZM351.676 39.9453C349.059 40.9609 346.51 41.4688 344.029 41.4688C340.357 41.4688 338.092 40.3262 337.232 38.041C335.455 40.4238 332.896 41.6152 329.557 41.6152C323.326 41.6152 320.211 38.7246 320.211 32.9434C320.211 28.5488 323.062 25.4629 328.766 23.6855C334 22.0449 336.617 20.0723 336.617 17.7676C336.617 14.7402 335.113 13.2266 332.105 13.2266C328.629 13.2266 326.891 14.6914 326.891 17.6211C326.891 18.5391 327.164 19.75 327.711 21.2539L322.408 20.2285C322.271 19.3105 322.203 18.4512 322.203 17.6504C322.203 12.9629 326.48 10.6191 335.035 10.6191C343.16 10.6191 347.223 12.8066 347.223 17.1816V35.1113C347.223 36.9473 347.818 37.8652 349.01 37.8652C349.381 37.8652 349.928 37.6602 350.65 37.25L351.676 39.9453ZM336.529 23.2461C335.865 24.0078 335.094 24.6426 334.215 25.1504C332.008 26.4395 330.904 28.6074 330.904 31.6543C330.904 35.5605 331.666 37.5137 333.189 37.5137C335.416 37.5137 336.529 35.5801 336.529 31.7129V23.2461ZM369.605 11.5566V14.8672H364.859V35.7559C364.859 37.0645 365.279 37.7188 366.119 37.7188C366.725 37.7188 367.086 37.2793 367.203 36.4004L370.25 36.6934C369.41 39.7793 366.734 41.3223 362.223 41.3223C356.852 41.3223 354.166 39.0371 354.166 34.4668V14.8672H350.592V11.5566H354.166V6.3418C357.857 5.32617 361.422 3.86133 364.859 1.94727V11.5566H369.605ZM378.629 31.2441C382.066 31.2441 383.785 32.9629 383.785 36.4004C383.785 39.8379 382.066 41.5566 378.629 41.5566C375.191 41.5566 373.473 39.8379 373.473 36.4004C373.473 32.9629 375.191 31.2441 378.629 31.2441ZM38.6094 61.0098L49.7422 101H38.082L35.709 92.3281H23.668L21.1191 101H16.5781L28.4141 61.0098H38.6094ZM24.8105 88.3145H34.625L29.9082 70.5898L24.8105 88.3145ZM80.3281 101H69.6348V79.3203C69.6348 77.1133 69.0195 76.0098 67.7891 76.0098C66.5391 76.0098 65.4551 76.8887 64.5371 78.6465C63.6191 80.3848 63.1602 82.4453 63.1602 84.8281V101H52.4668V71.4102C56.1387 71.4102 59.7031 71.166 63.1602 70.6777V76.2148C65.8164 72.543 69.0586 70.707 72.8867 70.707C77.8477 70.707 80.3281 73.2266 80.3281 78.2656V101ZM111.148 71.4688L97.6133 104.809C95.7578 109.379 93.2578 111.664 90.1133 111.664C87.0664 111.664 84.9961 110.365 83.9023 107.768L87.5938 105.102C87.8867 107.348 88.7168 108.471 90.084 108.471C91.627 108.471 92.877 107.172 93.834 104.574L94.625 102.465L82.7305 71.4688H94.4785L100.426 88.8418L107.193 71.4688H111.148ZM150.729 71.4688L141.031 101H134.234L130.221 86.0293L126.236 101H119.469L109.771 71.4688H120.934L126.148 88.8125L130.367 71.4688H137.281L141.793 88.8125L147.242 71.4688H150.729ZM152.926 101V61.0098C156.09 61.0098 159.654 60.8047 163.619 60.3945V76.5371C165.924 72.6504 169.176 70.707 173.375 70.707C178.336 70.707 180.816 72.9336 180.816 77.3867V101H170.123V78.5586C170.123 76.8594 169.557 76.0098 168.424 76.0098C167.252 76.0098 166.158 77.1035 165.143 79.291C164.127 81.459 163.619 83.793 163.619 86.293V101H152.926ZM207.975 90.1895L212.281 91.4492C211.832 98.2656 207.809 101.674 200.211 101.674C190.367 101.674 185.445 96.7617 185.445 86.9375C185.445 82.1719 186.754 78.2656 189.371 75.2188C191.988 72.1719 195.338 70.6484 199.42 70.6484C207.955 70.6484 212.223 76.1562 212.223 87.1719H196.637C196.637 94.9062 198.6 98.7734 202.525 98.7734C206.197 98.7734 208.033 96.5859 208.033 92.2109C208.033 91.625 208.014 90.9512 207.975 90.1895ZM196.607 83.8613H202.994C202.994 76.9863 201.959 73.5488 199.889 73.5488C198.014 73.5488 196.959 76.0977 196.725 81.1953L196.607 83.8613ZM238.062 82.1914H230.738C230.992 81.0391 231.217 80.1895 231.412 79.6426C231.686 78.8418 231.822 78.1191 231.822 77.4746C231.822 76.2246 231.373 75.5996 230.475 75.5996C229.791 75.5996 229.137 76.4297 228.512 78.0898C227.887 79.7305 227.574 81.4688 227.574 83.3047V101H216.881V71.4688L218.961 71.498C221.422 71.498 224.293 71.2344 227.574 70.707V75.5703C229.312 72.3281 231.441 70.707 233.961 70.707C237.398 70.707 239.117 72.6016 239.117 76.3906C239.117 77.3867 238.951 78.5293 238.619 79.8184C238.502 80.3457 238.316 81.1367 238.062 82.1914ZM263.639 90.1895L267.945 91.4492C267.496 98.2656 263.473 101.674 255.875 101.674C246.031 101.674 241.109 96.7617 241.109 86.9375C241.109 82.1719 242.418 78.2656 245.035 75.2188C247.652 72.1719 251.002 70.6484 255.084 70.6484C263.619 70.6484 267.887 76.1562 267.887 87.1719H252.301C252.301 94.9062 254.264 98.7734 258.189 98.7734C261.861 98.7734 263.697 96.5859 263.697 92.2109C263.697 91.625 263.678 90.9512 263.639 90.1895ZM252.271 83.8613H258.658C258.658 76.9863 257.623 73.5488 255.553 73.5488C253.678 73.5488 252.623 76.0977 252.389 81.1953L252.271 83.8613ZM278.082 91.2441C281.52 91.2441 283.238 92.9629 283.238 96.4004C283.238 99.8379 281.52 101.557 278.082 101.557C274.645 101.557 272.926 99.8379 272.926 96.4004C272.926 92.9629 274.645 91.2441 278.082 91.2441Z" fill="#CA3030"/>
</svg>
